<?xml version="1.0" standalone="no"?>
<!DOCTYPE svg PUBLIC "-//W3C//DTD SVG 20010904//EN"
 "http://www.w3.org/TR/2001/REC-SVG-20010904/DTD/svg10.dtd">
<svg version="1.0" xmlns="http://www.w3.org/2000/svg"
 width="24.000000pt" height="24.000000pt" viewBox="0 0 24.000000 24.000000"
 preserveAspectRatio="xMidYMid meet">

<g transform="translate(0.000000,24.000000) scale(0.100000,-0.100000)"
fill="#000000" stroke="none">
<path d="M22 228 c-8 -10 5 -12 64 -10 l74 4 0 -106 0 -105 -77 -4 -78 -3 78
-2 c106 -3 108 0 106 133 l-1 105 -78 0 c-50 0 -81 -4 -88 -12z"/>
<path d="M37 203 c-3 -5 10 -7 28 -5 32 4 34 3 38 -34 l4 -39 -1 40 c-1 37 -3
40 -33 43 -17 2 -33 -1 -36 -5z"/>
<path d="M50 165 c0 -16 6 -25 15 -25 9 0 15 9 15 25 0 16 -6 25 -15 25 -9 0
-15 -9 -15 -25z"/>
<path d="M128 183 c7 -3 16 -2 19 1 4 3 -2 6 -13 5 -11 0 -14 -3 -6 -6z"/>
<path d="M128 163 c7 -3 16 -2 19 1 4 3 -2 6 -13 5 -11 0 -14 -3 -6 -6z"/>
<path d="M202 108 c2 -35 8 -63 13 -63 6 0 11 28 13 63 2 51 0 62 -13 62 -13
0 -15 -11 -13 -62z"/>
<path d="M128 143 c7 -3 16 -2 19 1 4 3 -2 6 -13 5 -11 0 -14 -3 -6 -6z"/>
<path d="M58 103 c17 -2 47 -2 65 0 17 2 3 4 -33 4 -36 0 -50 -2 -32 -4z"/>
<path d="M58 83 c17 -2 47 -2 65 0 17 2 3 4 -33 4 -36 0 -50 -2 -32 -4z"/>
<path d="M33 63 c8 -7 108 -5 116 2 2 3 -24 5 -59 5 -35 0 -60 -3 -57 -7z"/>
<path d="M30 35 c0 -8 7 -15 15 -15 8 0 15 7 15 15 0 8 -7 15 -15 15 -8 0 -15
-7 -15 -15z"/>
<path d="M88 33 c12 -2 32 -2 45 0 12 2 2 4 -23 4 -25 0 -35 -2 -22 -4z"/>
</g>
</svg>
